<svg xmlns="http://www.w3.org/2000/svg" width="144" height="144" viewBox="0 0 24 24" fill="none"><g transform="translate(1.92 1.92) scale(0.84)" stroke-linecap="round" stroke-linejoin="round"><g stroke="#000" stroke-width="2.1"><path d="M21 15a4 4 0 0 1-4 4H7l-4 4V7a4 4 0 0 1 4-4h10a4 4 0 0 1 4 4z"/><path d="M8 9h8"/><path d="M8 13h6"/></g><g stroke="#fff" stroke-width="1.05"><path d="M21 15a4 4 0 0 1-4 4H7l-4 4V7a4 4 0 0 1 4-4h10a4 4 0 0 1 4 4z"/><path d="M8 9h8"/><path d="M8 13h6"/></g></g></svg>
